<?xml version="1.0" standalone="no"?>
<!DOCTYPE svg PUBLIC "-//W3C//DTD SVG 20010904//EN"
 "http://www.w3.org/TR/2001/REC-SVG-20010904/DTD/svg10.dtd">
<svg version="1.0" xmlns="http://www.w3.org/2000/svg"
 width="270.000000pt" height="270.000000pt" viewBox="0 0 270.000000 270.000000"
 preserveAspectRatio="xMidYMid meet">

<g transform="translate(0.000000,270.000000) scale(0.100000,-0.100000)"
fill="#000000" stroke="none">
<path d="M783 1625 l62 -186 49 3 49 3 40 118 c22 65 43 115 47 110 4 -4 24
-59 45 -120 l37 -113 48 0 48 0 58 173 c31 94 59 178 62 185 3 10 -6 12 -39
10 l-43 -3 -40 -122 c-22 -68 -43 -123 -46 -123 -3 0 -24 55 -46 123 l-40 122
-44 0 -44 0 -40 -122 c-22 -68 -43 -123 -46 -123 -3 0 -24 55 -46 123 l-40
122 -46 3 -47 3 62 -186z"/>
<path d="M1393 1717 c-43 -16 -46 -20 -32 -51 9 -19 17 -25 28 -20 36 17 108
16 124 -1 10 -9 17 -20 17 -24 0 -5 -30 -11 -67 -14 -86 -8 -117 -29 -121 -83
-2 -31 2 -44 22 -63 32 -30 95 -38 137 -17 21 11 35 13 37 6 2 -5 19 -10 38
-10 l34 0 0 108 c0 121 -9 144 -66 168 -40 17 -107 17 -151 1z m137 -176 c0
-32 -29 -52 -69 -49 -26 2 -37 8 -40 22 -5 27 25 46 71 46 31 0 38 -4 38 -19z"/>
<path d="M1650 1721 c0 -13 109 -264 120 -275 5 -4 17 11 27 35 l19 43 -42
101 -43 100 -41 3 c-22 2 -40 -1 -40 -7z"/>
</g>
</svg>
