<svg width="58" height="22" viewBox="0 0 58 22" fill="none" xmlns="http://www.w3.org/2000/svg">
<path d="M28.2119 0L22.4384 17.0732H18.0516L14.169 5.51219L10.1603 17.0732H5.7987L0 0H4.23557L8.21902 12L12.379 0H16.1607L20.1946 12.0976L24.3041 0H28.2119Z" fill="#141517"/>
<path d="M34.6762 3.7561C36.7771 3.7561 38.3907 4.2439 39.5168 5.21951C40.6429 6.17886 41.206 7.63414 41.206 9.58536V17.0732H37.5251V15.439C36.7855 16.6585 35.4073 17.2683 33.3904 17.2683C32.3483 17.2683 31.4407 17.0976 30.6675 16.7561C29.9111 16.4146 29.3313 15.9431 28.9279 15.3415C28.5245 14.7398 28.3228 14.0569 28.3228 13.2927C28.3228 12.0732 28.7934 11.1138 29.7347 10.4146C30.6927 9.71545 32.1634 9.36585 34.1467 9.36585H37.273C37.273 8.53658 37.0124 7.90244 36.4914 7.46342C35.9704 7.00813 35.1888 6.78049 34.1467 6.78049C33.424 6.78049 32.7096 6.89431 32.0037 7.12195C31.3146 7.33333 30.7263 7.62602 30.2389 8L28.827 5.34146C29.5666 4.8374 30.449 4.44715 31.4743 4.17073C32.5164 3.89431 33.5837 3.7561 34.6762 3.7561ZM34.3736 14.7073C35.0459 14.7073 35.6426 14.561 36.1637 14.2683C36.6847 13.9593 37.0545 13.5122 37.273 12.9268V11.5854H34.5753C32.9618 11.5854 32.155 12.0976 32.155 13.122C32.155 13.6098 32.3483 14 32.7349 14.2927C33.1382 14.5691 33.6845 14.7073 34.3736 14.7073Z" fill="#141517"/>
<path d="M57.9824 3.95122L51.856 17.878C51.2341 19.3902 50.4609 20.4553 49.5365 21.0732C48.6289 21.6911 47.528 22 46.2338 22C45.5278 22 44.8303 21.8943 44.1412 21.6829C43.4521 21.4715 42.889 21.1789 42.452 20.8049L43.8891 18.0976C44.1916 18.3577 44.5362 18.561 44.9228 18.7073C45.3261 18.8537 45.7211 18.9268 46.1077 18.9268C46.6456 18.9268 47.0826 18.7967 47.4187 18.5366C47.7549 18.2927 48.0574 17.878 48.3263 17.2927L48.3768 17.1707L42.5024 3.95122H46.5615L50.3685 12.8537L54.2007 3.95122H57.9824Z" fill="#141517"/>
<path d="M58.0001 3.9502L51.8737 17.877C51.2518 19.3892 50.4787 20.4543 49.5542 21.0721C48.6466 21.69 47.5457 21.999 46.2515 21.999C45.5456 21.999 44.848 21.8933 44.1589 21.6819C43.4698 21.4705 42.9067 21.1778 42.4697 20.8039L43.9068 18.0965C44.2093 18.3567 44.5539 18.5599 44.9405 18.7063C45.3439 18.8526 45.7388 18.9258 46.1254 18.9258C46.6633 18.9258 47.1003 18.7957 47.4364 18.5356C47.7726 18.2917 48.0751 17.877 48.3441 17.2917L48.3945 17.1697L50.3862 12.8526L54.2184 3.9502H58.0001Z" fill="#FE7865"/>
</svg>
